<svg xmlns="http://www.w3.org/2000/svg" width="48" height="48" fill="#535353" viewBox="0 0 24 24">
  <path d="M12.1 18.55L10.55 17.03C6.4 13.1 2 9.84 2 6.5C2 4.5 3.5 3 5.5 3C6.74 3 7.92 3.59 8.54 4.54C9.14 3.59 10.32 3 11.56 3C13.56 3 15.06 4.5 15.06 6.5C15.06 9.84 10.66 13.1 6.51 17.03L4.96 18.55C4.36 19.15 3.41 19.15 2.81 18.55C2.21 17.95 2.21 17 2.81 16.4L4.36 14.88C9.25 10.09 12 7.85 12 6.5C12 5.67 11.33 5 10.5 5C10.04 5 9.61 5.21 9.35 5.55C8.79 4.86 7.79 4.5 6.5 4.5C5.12 4.5 4 5.62 4 7C4 9.03 6.26 11.03 10.5 14.64C14.74 11.03 17 9.03 17 7C17 5.62 15.88 4.5 14.5 4.5C13.21 4.5 12.21 4.86 11.65 5.55C11.39 5.21 10.96 5 10.5 5C9.67 5 9 5.67 9 6.5C9 7.85 11.75 10.09 16.64 14.88L18.19 16.4C18.79 17 18.79 17.95 18.19 18.55C17.59 19.15 16.64 19.15 16.04 18.55L14.49 17.03L12.94 18.55C12.34 19.15 11.39 19.15 10.79 18.55Z"/>
</svg>
